<?xml version="1.0" encoding="UTF-8" standalone="no"?>
<svg
   xmlns:dc="http://purl.org/dc/elements/1.1/"
   xmlns:cc="http://creativecommons.org/ns#"
   xmlns:rdf="http://www.w3.org/1999/02/22-rdf-syntax-ns#"
   xmlns:svg="http://www.w3.org/2000/svg"
   xmlns="http://www.w3.org/2000/svg"
   xmlns:sodipodi="http://sodipodi.sourceforge.net/DTD/sodipodi-0.dtd"
   xmlns:inkscape="http://www.inkscape.org/namespaces/inkscape"
   class="bi bi-dpad"
   height="32"
   viewBox="0 0 32 32"
   width="32"
   version="1.1"
   id="svg6"
   sodipodi:docname="dpad.svg"
   style="fill:currentColor"
   inkscape:version="0.92.5 (2060ec1f9f, 2020-04-08)"
   inkscape:export-filename="/w/mkdd-extender/data/controls/dpad.png"
   inkscape:export-xdpi="96"
   inkscape:export-ydpi="96">
  <metadata
     id="metadata12">
    <rdf:RDF>
      <cc:Work
         rdf:about="">
        <dc:format>image/svg+xml</dc:format>
        <dc:type
           rdf:resource="http://purl.org/dc/dcmitype/StillImage" />
        <dc:title></dc:title>
      </cc:Work>
    </rdf:RDF>
  </metadata>
  <defs
     id="defs10" />
  <sodipodi:namedview
     pagecolor="#ffffff"
     bordercolor="#666666"
     borderopacity="1"
     objecttolerance="10"
     gridtolerance="10"
     guidetolerance="10"
     inkscape:pageopacity="0"
     inkscape:pageshadow="2"
     inkscape:window-width="1920"
     inkscape:window-height="1028"
     id="namedview8"
     showgrid="false"
     inkscape:zoom="2.8284271"
     inkscape:cx="31.751374"
     inkscape:cy="7.2111098"
     inkscape:window-x="0"
     inkscape:window-y="0"
     inkscape:window-maximized="1"
     inkscape:current-layer="svg6" />
  <path
     style="fill:#ffffff;fill-opacity:1;stroke:#000000;stroke-width:5.5;stroke-linecap:round;stroke-linejoin:round;stroke-miterlimit:1.5;stroke-dasharray:none;stroke-dashoffset:0;stroke-opacity:1;paint-order:stroke fill markers"
     d="M 11.966459,3.9006383 V 11.967723 H 3.8993739 v 8.064556 h 8.0670851 v 8.067083 h 8.067084 v -8.067083 h 8.067083 V 11.967723 H 20.033543 V 3.9006383 Z"
     id="rect824"
     inkscape:connector-curvature="0" />
  <path
     style="fill:currentColor;stroke-width:2.68681359"
     d="m 26.424413,16.570949 -3.431061,2.146764 c -0.44765,0.281253 -1.029713,-0.04095 -1.02905,-0.569604 v -4.296215 c -6.63e-4,-0.528671 0.5814,-0.850858 1.02905,-0.569605 l 3.433748,2.146764 c 0.420937,0.263093 0.420937,0.876125 0,1.139209 z"
     id="path2-5"
     inkscape:connector-curvature="0"
     sodipodi:nodetypes="cccccccc" />
  <g
     id="g940"
     transform="rotate(-90,15.911612,15.911612)"
     style="fill:#cccccc">
    <path
       style="fill:#cccccc;stroke-width:2.68681359"
       d="m 26.247637,16.570949 -3.431061,2.146764 c -0.44765,0.281253 -1.029713,-0.04095 -1.02905,-0.569604 v -4.296215 c -6.63e-4,-0.528671 0.5814,-0.850858 1.02905,-0.569605 l 3.433748,2.146764 c 0.420937,0.263093 0.420937,0.876125 0,1.139209 z"
       id="path938"
       inkscape:connector-curvature="0"
       sodipodi:nodetypes="cccccccc" />
  </g>
  <g
     transform="rotate(-180,15.911612,16)"
     id="g946"
     style="fill:#cccccc">
    <path
       sodipodi:nodetypes="cccccccc"
       inkscape:connector-curvature="0"
       id="path944"
       d="m 26.247637,16.570949 -3.431061,2.146764 c -0.44765,0.281253 -1.029713,-0.04095 -1.02905,-0.569604 v -4.296215 c -6.63e-4,-0.528671 0.5814,-0.850858 1.02905,-0.569605 l 3.433748,2.146764 c 0.420937,0.263093 0.420937,0.876125 0,1.139209 z"
       style="fill:#cccccc;stroke-width:2.68681359" />
  </g>
  <g
     id="g952"
     transform="rotate(90,15.911612,16.088388)"
     style="fill:#cccccc">
    <path
       style="fill:#cccccc;stroke-width:2.68681359"
       d="m 26.247637,16.570949 -3.431061,2.146764 c -0.44765,0.281253 -1.029713,-0.04095 -1.02905,-0.569604 v -4.296215 c -6.63e-4,-0.528671 0.5814,-0.850858 1.02905,-0.569605 l 3.433748,2.146764 c 0.420937,0.263093 0.420937,0.876125 0,1.139209 z"
       id="path950"
       inkscape:connector-curvature="0"
       sodipodi:nodetypes="cccccccc" />
  </g>
  <circle
     style="fill:#cccccc;fill-opacity:1;stroke:none;stroke-width:9.01388836;stroke-linecap:round;stroke-linejoin:round;stroke-miterlimit:1.5;stroke-dasharray:none;stroke-dashoffset:0;stroke-opacity:1;paint-order:stroke fill markers"
     id="path956"
     cx="16"
     cy="16"
     r="2.6074562" />
</svg>
