<svg data-name="Layer 1" height="24" width="24"><path d="m 22.205655,12.512789 -3.442507,6.885014 c -0.193641,0.390868 -0.59168,0.634713 -1.057853,0.634713 H 3.9675391 c -1.2676317,0 -2.295005,-1.027732 -2.295005,-2.295005 V 6.2624884 c 0,-1.267273 1.0273733,-2.2950047 2.295005,-2.2950047 h 4.2134853 c 0.608535,0 1.1923267,0.2417645 1.6229984,0.6723648 l 1.7621332,1.62264 h 5.023909 c 1.267632,0 2.295005,1.0277317 2.295005,2.2950051 V 9.7049954 H 17.163816 V 8.5574936 c 0,-0.3164244 -0.257399,-0.5737513 -0.573751,-0.5737513 H 10.852553 L 8.586236,5.8569181 C 8.4786576,5.7482639 8.3352205,5.6887372 8.1810244,5.6887372 H 3.9675391 c -0.3162808,0 -0.5737513,0.2574709 -0.5737513,0.5737512 V 16.590008 l 2.5517581,-5.102799 c 0.1950753,-0.390868 0.5931154,-0.634712 1.027015,-0.634712 H 21.180075 c 0.849869,0 1.405691,0.896486 1.02558,1.660292 z" fill="#fff"/></svg>
