<svg height="24" width="24" xml:space="preserve"><path d="m5.192 6.216.905-.414a.743.743 0 0 1 .572-.021c.187.07.336.208.42.39l.103.226.805-.37c.121-.734.598-1.368 1.272-1.677l1.812-.83a5.133 5.133 0 0 1 3.977-.155 5.194 5.194 0 0 1 2.933 2.726l.143.314-3.324.36-.15.403a2.258 2.258 0 0 1-1.168 1.257l-1.969.9a2.21 2.21 0 0 1-1.702.06 2.281 2.281 0 0 1-.399-.195l-.805.37.103.226a.748.748 0 0 1-.368.99l-.906.415a.743.743 0 0 1-.572.02.742.742 0 0 1-.419-.389l-1.66-3.624a.73.73 0 0 1 .397-.982Zm8.717 3.114c.154-.07.298-.159.438-.252l4.718 8.707a2.241 2.241 0 0 1-2.796 3.043 2.284 2.284 0 0 1-1.257-1.168L11.51 10.4a3.24 3.24 0 0 0 .456-.162z" fill="#fff"/></svg>