<svg data-name="Layer 1" height="24" width="24"><path d="M21.755 2.02a1.094 1.094 0 0 0-1.546.071l-7.194 7.894 1.618 1.474 7.194-7.893a1.094 1.094 0 0 0-.072-1.546ZM13.32 15.892c-1.732-1.548-3.5-3.14-5.041-4.775l-.234.143-.01.006a7.523 7.523 0 0 1-5.308.968.715.715 0 0 0-.833.796 10.75 10.75 0 0 0 3.348 6.56 13.487 13.487 0 0 0 4.478-2.153 16.198 16.198 0 0 1-2.516 3.617 13.192 13.192 0 0 0 2.45 1.171.703.703 0 0 0 .27.04.714.714 0 0 0 .505-.243 19.482 19.482 0 0 0 3.268-5.506l.085-.21-.461-.414zm.747-.637.054.049.316-1.038a1.764 1.764 0 0 0-.424-2.019l-1.896-1.728a1.764 1.764 0 0 0-2.05-.235l-.874.378c1.44 1.499 3.259 3.15 4.874 4.593z" fill="#fff"/></svg>