<svg height="24" width="24" xml:space="preserve"><path d="M23.525 12A11.525 11.525 0 0 1 12 23.525 11.525 11.525 0 0 1 .475 12 11.525 11.525 0 0 1 12 .475 11.525 11.525 0 0 1 23.525 12Z" fill="#FFFFFF"/><path d="m 10.527952,17.964059 c -0.07795,0.08615 -0.150611,0.176952 -0.217541,0.271926 -0.06862,0.101054 -0.123473,0.210791 -0.163156,0.326314 -0.05227,0.102765 -0.08892,0.21274 -0.108772,0.326312 -0.0088,0.120699 -0.0088,0.241877 0,0.36257 -0.0062,0.237803 0.04354,0.473735 0.145028,0.688882 0.164824,0.455442 0.523496,0.814106 0.978938,0.978937 0.438782,0.193933 0.938983,0.193933 1.377764,0 0.455442,-0.164824 0.814107,-0.523495 0.978938,-0.978937 0.08051,-0.220423 0.117436,-0.45438 0.108771,-0.688882 0.0028,-0.481861 -0.186384,-0.945003 -0.525726,-1.287122 -0.709143,-0.714984 -1.865098,-0.714984 -2.574244,0 z M 11.815074,2.9355515 C 9.8708233,2.9343039 8.0737951,3.9710518 7.1016698,5.6548229 5.749106,7.7825061 9.0692569,9.7016683 10.237896,7.4676703 10.563014,6.904538 11.164833,6.5586652 11.815074,6.5612467 c 2.41713,0 2.41713,3.6256953 0,3.6256953 -1.001208,0 -1.812848,0.81164 -1.812848,1.812848 v 1.812847 c 0,2.41713 3.625695,2.41713 3.625695,0 V 13.486325 C 19.328031,11.41803 17.878644,2.9825948 11.815074,2.9355515 Z" fill="#0085B3"/></svg>