<svg xmlns="http://www.w3.org/2000/svg" height="24" width="24" xml:space="preserve">
    <path d="M23.798.343.202 4.219l.312 2.379 2.233 17.06 19.427-.114.79-9.071-2.883.052-.085-2.964 3.802-.385zM18.84 6.182v.512l-8.092.817ZM9.81 7.665l.584 5.265-2.175.32-.271 5.42-.853.006L5.741 8.333Z" style="color:#000;font-style:normal;font-variant:normal;font-weight:400;font-stretch:normal;font-size:medium;line-height:normal;font-family:sans-serif;font-variant-ligatures:normal;font-variant-position:normal;font-variant-caps:normal;font-variant-numeric:normal;font-variant-alternates:normal;font-feature-settings:normal;text-indent:0;text-align:start;text-decoration:none;text-decoration-line:none;text-decoration-style:solid;text-decoration-color:#000;letter-spacing:normal;word-spacing:normal;text-transform:none;writing-mode:lr-tb;direction:ltr;text-orientation:mixed;dominant-baseline:auto;baseline-shift:baseline;text-anchor:start;white-space:normal;shape-padding:0;clip-rule:nonzero;display:inline;overflow:visible;visibility:visible;opacity:1;isolation:auto;mix-blend-mode:normal;color-interpolation:sRGB;color-interpolation-filters:linearRGB;solid-color:#000;solid-opacity:1;vector-effect:none;fill:#000;fill-opacity:1;fill-rule:nonzero;stroke:none;stroke-width:4.95796251;stroke-linecap:butt;stroke-linejoin:miter;stroke-miterlimit:4;stroke-dasharray:none;stroke-dashoffset:0;stroke-opacity:1;paint-order:stroke markers fill;color-rendering:auto;image-rendering:auto;shape-rendering:auto;text-rendering:auto;enable-background:accumulate"/>
    <path d="m2.971 6.276 18.347-3.013v5.673l-8.775.886.177 1.596 4.787-.178.088 3.133-7.001 1.033-.09 1.773 9.75-.177-.354 4.077-14.98.088z" style="fill:#fff;fill-opacity:1;stroke:none;stroke-width:4.95796251;stroke-linecap:butt;stroke-linejoin:miter;stroke-miterlimit:4;stroke-dasharray:none;stroke-opacity:1;paint-order:stroke markers fill"/>
    <rect style="fill:#fff;fill-opacity:1;stroke:none;stroke-width:.55395526;stroke-linecap:butt;stroke-linejoin:miter;stroke-miterlimit:4;stroke-dasharray:none;stroke-dashoffset:0;stroke-opacity:1;paint-order:stroke markers fill" width="12.282" height="9.34" x="2.016" y="12.822" rx=".036" ry=".036"/>
    <path style="fill:#275c9f;fill-opacity:1;stroke-width:.07328366" d="M14.43 10.669H1.606A1.246 1.246 0 0 0 .36 11.915v10.48a1.246 1.246 0 0 0 1.245 1.245H14.43a1.246 1.246 0 0 0 1.247-1.245V11.914a1.246 1.246 0 0 0-1.246-1.246zm-6.926 6.94-2.931 2.345a.579.579 0 0 1-.366.132.57.57 0 0 1-.454-.22.579.579 0 0 1 .087-.82l2.361-1.892-2.36-1.89a.586.586 0 1 1 .732-.908L7.504 16.7a.579.579 0 0 1 0 .908zm4.324 2.477H8.896a.586.586 0 0 1 0-1.173h2.932a.586.586 0 0 1 0 1.173z"/>
</svg>

