<svg xmlns="http://www.w3.org/2000/svg" height="24" width="24" xml:space="preserve">
    <path d="M23.798.343.202 4.219l.312 2.379 2.233 17.06 19.427-.114.79-9.071-2.883.052-.085-2.964 3.802-.385zM18.84 6.182v.512l-8.092.817ZM9.81 7.665l.584 5.265-2.175.32-.271 5.42-.853.006L5.741 8.333Z" style="color:#000;font-style:normal;font-variant:normal;font-weight:400;font-stretch:normal;font-size:medium;line-height:normal;font-family:sans-serif;font-variant-ligatures:normal;font-variant-position:normal;font-variant-caps:normal;font-variant-numeric:normal;font-variant-alternates:normal;font-feature-settings:normal;text-indent:0;text-align:start;text-decoration:none;text-decoration-line:none;text-decoration-style:solid;text-decoration-color:#000;letter-spacing:normal;word-spacing:normal;text-transform:none;writing-mode:lr-tb;direction:ltr;text-orientation:mixed;dominant-baseline:auto;baseline-shift:baseline;text-anchor:start;white-space:normal;shape-padding:0;clip-rule:nonzero;display:inline;overflow:visible;visibility:visible;opacity:1;isolation:auto;mix-blend-mode:normal;color-interpolation:sRGB;color-interpolation-filters:linearRGB;solid-color:#000;solid-opacity:1;vector-effect:none;fill:#000;fill-opacity:1;fill-rule:nonzero;stroke:none;stroke-width:4.95796251;stroke-linecap:butt;stroke-linejoin:miter;stroke-miterlimit:4;stroke-dasharray:none;stroke-dashoffset:0;stroke-opacity:1;paint-order:stroke markers fill;color-rendering:auto;image-rendering:auto;shape-rendering:auto;text-rendering:auto;enable-background:accumulate"/>
    <path d="m2.971 6.276 18.347-3.013v5.673l-8.775.886.177 1.596 4.787-.178.088 3.133-7.001 1.033-.09 1.773 9.75-.177-.354 4.077-14.98.088z" style="fill:#fff;fill-opacity:1;stroke:none;stroke-width:4.95796251;stroke-linecap:butt;stroke-linejoin:miter;stroke-miterlimit:4;stroke-dasharray:none;stroke-opacity:1;paint-order:stroke markers fill"/>
</svg>
