<svg height="24" width="24" xml:space="preserve"><path d="M23.798.343.202 4.219l.312 2.379 2.233 17.06 19.427-.114.79-9.071-2.883.052-.085-2.964 3.802-.385zM18.84 6.182v.512l-8.092.817ZM9.81 7.665l.584 5.265-2.175.32-.271 5.42-.853.006L5.741 8.333Z" style="line-height:normal;font-variant-ligatures:normal;font-variant-position:normal;font-variant-caps:normal;font-variant-numeric:normal;font-variant-alternates:normal;font-feature-settings:normal;text-indent:0;text-align:start;text-decoration-line:none;text-decoration-style:solid;text-decoration-color:#000;text-transform:none;text-orientation:mixed;white-space:normal;shape-padding:0;isolation:auto;mix-blend-mode:normal;solid-color:#000;solid-opacity:1" color="#000" font-weight="400" font-family="sans-serif" overflow="visible" paint-order="stroke markers fill"/><path d="m2.971 6.276 18.347-3.013v5.673l-8.775.886.177 1.596 4.787-.178.088 3.133-7.001 1.033-.09 1.773 9.75-.177-.354 4.077-14.98.088z" fill="#fff" paint-order="stroke markers fill"/></svg>