<svg height="24" width="24" xml:space="preserve"><path d="M23.798.343.202 4.219l.312 2.379 2.233 17.06 19.427-.114.79-9.071-2.883.052-.085-2.964 3.802-.385zM18.84 6.182v.512l-8.092.817ZM9.81 7.665l.584 5.265-2.175.32-.271 5.42-.853.006L5.741 8.333Z" style="line-height:normal;font-variant-ligatures:normal;font-variant-position:normal;font-variant-caps:normal;font-variant-numeric:normal;font-variant-alternates:normal;font-feature-settings:normal;text-indent:0;text-align:start;text-decoration-line:none;text-decoration-style:solid;text-decoration-color:#000;text-transform:none;text-orientation:mixed;white-space:normal;shape-padding:0;isolation:auto;mix-blend-mode:normal;solid-color:#000;solid-opacity:1" color="#000" font-weight="400" font-family="sans-serif" overflow="visible" paint-order="stroke markers fill"/><path d="m2.971 6.276 18.347-3.013v5.673l-8.775.886.177 1.596 4.787-.178.088 3.133-7.001 1.033-.09 1.773 9.75-.177-.354 4.077-14.98.088z" fill="#fff" paint-order="stroke markers fill"/><path d="M14.43 10.669H1.606c-.6881 0-1.246.5579-1.246 1.246v10.48c.0006.6874.5576 1.2444 1.245 1.245H14.43c.6881.0006 1.2464-.5569 1.247-1.245V11.914c0-.6881-.5579-1.246-1.246-1.246z" fill="#275c9f"/><path d="M4.1855 14.1875c-.5943-.0237-.8418.7509-.3437 1.0762l2.3594 1.8906-2.3614 1.8926a.579.579 0 0 0-.0859.8183.57.57 0 0 0 .4531.2207.579.579 0 0 0 .3653-.1328l2.9316-2.3437v-.002c.293-.2318.293-.6764 0-.9082l-2.9316-2.3437a.586.586 0 0 0-.3868-.168Zm4.711 4.7246c-.7826 0-.7826 1.1738 0 1.1738h2.9316c.7826 0 .7826-1.1738 0-1.1738z" fill="#fff"/></svg>