<svg height="24" width="24" xml:space="preserve"><path d="M10.731 1.893a.524.524 0 0 0-.495.41L9.778 4.75a7.513 7.513 0 0 0-1.394.582L6.348 3.941a.521.521 0 0 0-.64.059L3.972 5.736a.525.525 0 0 0-.058.643l1.399 2.045a7.564 7.564 0 0 0-.574 1.394l-2.434.455a.525.525 0 0 0-.41.497v2.455c0 .232.183.453.41.497l2.432.455c.15.496.346.974.588 1.421l-1.386 2.024a.524.524 0 0 0 .06.642L5.734 20a.525.525 0 0 0 .641.059L8.4 18.674a7.555 7.555 0 0 0 1.378.576l.458 2.446a.526.526 0 0 0 .497.411h2.455a.526.526 0 0 0 .497-.41l.453-2.423a7.602 7.602 0 0 0 1.438-.586l2.05 1.401a.521.521 0 0 0 .638-.059l1.738-1.737a.522.522 0 0 0 .059-.64l-1.394-2.037c.246-.453.445-.937.596-1.44l2.432-.455a.525.525 0 0 0 .41-.496V10.77a.525.525 0 0 0-.41-.497l-2.436-.456a7.506 7.506 0 0 0-.582-1.408l1.41-2.06a.524.524 0 0 0-.061-.642L18.29 3.97a.525.525 0 0 0-.641-.06l-2.06 1.41a7.534 7.534 0 0 0-1.452-.594l-.455-2.422a.524.524 0 0 0-.495-.411zM12 7.784a4.216 4.216 0 1 1 0 8.432 4.216 4.216 0 0 1 0-8.432zm0 2.473A1.742 1.742 0 0 0 10.257 12 1.742 1.742 0 0 0 12 13.743 1.742 1.742 0 0 0 13.743 12 1.742 1.742 0 0 0 12 10.257Z" fill="#fff"/></svg>