<svg xml:space="preserve" width="24" height="24"><path d="M22.3047 11.3898a10.9148 10.9148 0 0 1-10.9149 10.9149A10.9148 10.9148 0 0 1 .475 11.3898 10.9148 10.9148 0 0 1 11.3898.475a10.9148 10.9148 0 0 1 10.9149 10.9148Z" fill="#2bc073"/><path d="M9.7887 16.1435 4.894 11.2487c-.0664-.0663-.0664-.1659 0-.2322l1.4103-1.4104c.0663-.0663.166-.0663.2322 0l3.3683 3.3683 6.3383-6.3383c.0664-.0664.166-.0664.2323 0l1.4104 1.4103c.0664.0663.0664.166 0 .2323l-7.8648 7.8648c-.0663.0664-.166.0664-.2323 0z" class="st1" fill="#f9f9f9"/><path d="m17.4626 13.8007-5.2403 9.0759a.4784.4784 0 0 0 .4133.7166h10.4808a.4784.4784 0 0 0 .4133-.7166l-5.2404-9.0759a.4784.4784 0 0 0-.8267 0z" class="cls-1" fill="#efcc00"/><path d="M17.202 21.551a.674.674 0 1 1 .674.674.6472.6472 0 0 1-.674-.674zm.2445-1.0468-.1707-3.3708h1.1823l-.1644 3.3703z" class="cls-2"/></svg>